<svg width="11410" height="3846" viewBox="0 0 11410 3846" fill="none" xmlns="http://www.w3.org/2000/svg">
<path d="M4014.5 3158L4291.65 2382.95H4408.2V2520.99H4367.92L4159.52 3158H4014.5ZM4154.69 2957.66L4191.75 2850.77H4546.78L4583.84 2957.66H4154.69ZM4579 3158L4370.61 2520.99V2382.95H4447.41L4724.02 3158H4579ZM4862.28 3158V2382.95H5000.85V3158H4862.28ZM5623.25 3167.67C5585.65 3167.67 5552.35 3160.51 5523.35 3146.18C5494.7 3131.5 5472.32 3111.27 5456.21 3085.49C5440.46 3059.35 5432.58 3029.45 5432.58 2995.79V2994.72C5432.58 2960.7 5440.99 2931.7 5457.82 2907.71C5475.01 2883.36 5499.72 2864.2 5531.94 2850.24C5564.17 2835.91 5603.2 2827.32 5649.03 2824.46L5866.56 2811.03V2899.65L5667.83 2912C5634.89 2914.15 5609.65 2922.03 5592.1 2935.64C5574.55 2949.24 5565.78 2967.33 5565.78 2989.88V2990.42C5565.78 3013.7 5574.55 3032.14 5592.1 3045.74C5610 3058.99 5633.64 3065.62 5663 3065.62C5688.78 3065.62 5711.7 3060.43 5731.75 3050.04C5752.16 3039.66 5768.27 3025.51 5780.09 3007.61C5791.9 2989.71 5797.81 2969.47 5797.81 2946.92V2776.12C5797.81 2747.47 5788.68 2724.91 5770.42 2708.44C5752.52 2691.61 5726.56 2683.2 5692.54 2683.2C5661.03 2683.2 5635.78 2690 5616.81 2703.61C5597.83 2716.85 5586.01 2734.04 5581.36 2755.17L5580.28 2760H5456.75L5457.29 2753.56C5460.15 2719.9 5471.43 2689.82 5491.12 2663.32C5510.82 2636.47 5538.03 2615.34 5572.76 2599.94C5607.85 2584.55 5649.39 2576.85 5697.37 2576.85C5745 2576.85 5786.18 2584.73 5820.91 2600.48C5856 2616.24 5883.03 2638.26 5902.01 2666.54C5921.35 2694.83 5931.02 2728.13 5931.02 2766.45V3158H5797.81V3070.45H5794.59C5783.85 3090.15 5769.88 3107.33 5752.7 3122.01C5735.51 3136.69 5715.81 3147.97 5693.61 3155.85C5671.77 3163.73 5648.32 3167.67 5623.25 3167.67ZM6351.25 3357.27C6301.12 3357.27 6257.26 3350.29 6219.66 3336.32C6182.42 3322.71 6152.7 3303.91 6130.5 3279.92C6108.3 3255.93 6094.51 3229.08 6089.14 3199.36L6088.07 3194.52H6219.12L6221.27 3198.82C6228.43 3215.29 6243.11 3228.9 6265.31 3239.64C6287.87 3250.74 6316.34 3256.29 6350.71 3256.29C6394.4 3256.29 6427.88 3245.55 6451.15 3224.06C6474.43 3202.58 6486.06 3173.76 6486.06 3137.59V3055.41H6483.38C6472.99 3075.82 6459.03 3093.37 6441.48 3108.05C6424.3 3122.73 6404.07 3134.19 6380.79 3142.42C6357.87 3150.66 6332.81 3154.78 6305.6 3154.78C6257.97 3154.78 6216.44 3143.14 6180.99 3119.87C6145.9 3096.59 6118.68 3063.65 6099.35 3021.04C6080.37 2978.07 6070.88 2927.04 6070.88 2867.96V2867.42C6070.88 2807.27 6080.55 2755.71 6099.88 2712.74C6119.58 2669.41 6147.15 2635.93 6182.6 2612.3C6218.05 2588.66 6259.76 2576.85 6307.74 2576.85C6334.6 2576.85 6359.31 2581.5 6381.87 2590.81C6404.42 2599.76 6424.12 2612.3 6440.95 2628.41C6458.13 2644.52 6472.1 2663.5 6482.84 2685.34H6486.06V2588.66H6619.8V3141.89C6619.8 3184.86 6608.88 3222.45 6587.04 3254.68C6565.2 3287.26 6534.23 3312.51 6494.12 3330.41C6454.02 3348.32 6406.39 3357.27 6351.25 3357.27ZM6347.49 3051.65C6375.42 3051.65 6399.77 3044.31 6420.54 3029.63C6441.31 3014.59 6457.42 2993.47 6468.88 2966.25C6480.69 2939.04 6486.6 2907.17 6486.6 2870.65V2870.11C6486.6 2833.23 6480.69 2801.36 6468.88 2774.5C6457.06 2747.29 6440.77 2726.34 6420 2711.66C6399.23 2696.98 6375.06 2689.64 6347.49 2689.64C6318.84 2689.64 6293.96 2696.98 6272.83 2711.66C6251.71 2726.34 6235.41 2747.11 6223.96 2773.97C6212.5 2800.82 6206.77 2832.87 6206.77 2870.11V2870.65C6206.77 2907.89 6212.5 2940.11 6223.96 2967.33C6235.41 2994.18 6251.71 3014.95 6272.83 3029.63C6293.96 3044.31 6318.84 3051.65 6347.49 3051.65ZM7034.67 3169.28C6977.73 3169.28 6928.68 3157.28 6887.5 3133.29C6846.68 3109.3 6815.35 3075.29 6793.51 3031.24C6771.66 2987.2 6760.74 2935.1 6760.74 2874.94V2874.41C6760.74 2814.61 6771.66 2762.51 6793.51 2718.11C6815.71 2673.35 6846.68 2638.62 6886.43 2613.91C6926.53 2589.2 6973.8 2576.85 7028.22 2576.85C7082.29 2576.85 7129.02 2588.84 7168.41 2612.83C7208.15 2636.47 7238.59 2669.77 7259.72 2712.74C7281.2 2755.71 7291.94 2805.84 7291.94 2863.13V2906.1H6826.81V2816.94H7228.03L7163.57 2900.19V2848.62C7163.57 2811.39 7157.85 2780.41 7146.39 2755.71C7134.93 2731 7119.17 2712.56 7099.12 2700.38C7079.07 2687.85 7055.97 2681.58 7029.83 2681.58C7003.34 2681.58 6979.7 2688.03 6958.94 2700.92C6938.53 2713.45 6922.41 2732.25 6910.6 2757.32C6899.14 2782.38 6893.41 2812.82 6893.41 2848.62V2900.19C6893.41 2934.92 6899.14 2964.64 6910.6 2989.35C6922.41 3013.7 6939.06 3032.5 6960.55 3045.74C6982.03 3058.63 7007.63 3065.08 7037.35 3065.08C7059.55 3065.08 7079.07 3061.68 7095.9 3054.88C7112.73 3047.71 7126.51 3038.58 7137.26 3027.48C7148.36 3016.38 7156.05 3004.39 7160.35 2991.5L7161.43 2987.74H7286.04L7284.96 2993.64C7280.31 3015.49 7271.71 3036.97 7259.18 3058.1C7246.65 3078.87 7229.82 3097.66 7208.69 3114.49C7187.57 3131.32 7162.5 3144.75 7133.5 3154.78C7104.49 3164.45 7071.55 3169.28 7034.67 3169.28ZM7432.34 3158V2588.66H7565.55V2677.82H7568.77C7583.45 2647.03 7605.29 2622.5 7634.3 2604.24C7663.66 2585.98 7699.82 2576.85 7742.79 2576.85C7805.46 2576.85 7853.8 2595.83 7887.81 2633.78C7922.19 2671.74 7939.38 2723.66 7939.38 2789.54V3158H7805.63V2816.4C7805.63 2775.94 7796.15 2744.78 7777.17 2722.94C7758.19 2700.74 7729.72 2689.64 7691.77 2689.64C7666.34 2689.64 7644.14 2695.55 7625.17 2707.37C7606.19 2718.82 7591.51 2734.94 7581.12 2755.71C7570.74 2776.12 7565.55 2800.11 7565.55 2827.68V3158H7432.34ZM8312.88 3169.28C8253.8 3169.28 8209.76 3156.39 8180.75 3130.61C8152.11 3104.83 8137.78 3062.57 8137.78 3003.85V2691.79H8057.22V2588.66H8137.78V2444.18H8273.67V2588.66H8379.48V2691.79H8273.67V2993.11C8273.67 3020.68 8279.76 3039.84 8291.93 3050.58C8304.47 3060.96 8322.73 3066.15 8346.72 3066.15C8353.52 3066.15 8359.43 3065.98 8364.44 3065.62C8369.81 3064.9 8374.83 3064.36 8379.48 3064.01V3164.45C8371.6 3165.52 8361.94 3166.59 8350.48 3167.67C8339.38 3168.74 8326.85 3169.28 8312.88 3169.28Z" fill="black"/>
<path d="M4506.98 1805.31C4405.9 1805.31 4318.01 1783.09 4243.31 1738.66C4169.09 1694.23 4111.71 1631.24 4071.19 1549.7C4031.15 1467.66 4011.13 1370.5 4011.13 1258.19V1257.46C4011.13 1145.15 4031.39 1048.23 4071.92 966.688C4112.45 885.145 4169.82 822.4 4244.04 778.455C4318.26 734.021 4405.9 711.805 4506.98 711.805C4588.03 711.805 4660.54 727.43 4724.51 758.68C4788.96 789.93 4841.45 833.143 4881.98 888.318C4922.51 943.494 4947.41 1006.97 4956.69 1078.75L4957.42 1086.07H4772.12L4768.45 1072.16C4758.2 1031.63 4741.35 996.717 4717.92 967.42C4694.48 938.123 4664.94 915.418 4629.29 899.305C4593.65 883.191 4552.88 875.135 4506.98 875.135C4445.46 875.135 4391.99 890.76 4346.58 922.01C4301.17 953.26 4266.01 997.449 4241.11 1054.58C4216.21 1111.22 4203.76 1178.85 4203.76 1257.46V1258.19C4203.76 1336.32 4216.21 1404.19 4241.11 1461.8C4266.01 1518.93 4301.17 1563.37 4346.58 1595.11C4392.48 1626.36 4445.94 1641.98 4506.98 1641.98C4551.9 1641.98 4591.94 1634.17 4627.1 1618.54C4662.74 1602.43 4692.77 1579.24 4717.18 1548.96C4741.6 1518.69 4759.42 1481.82 4770.65 1438.37L4772.85 1431.04H4958.15L4956.69 1439.1C4947.9 1510.88 4923.24 1574.35 4882.71 1629.53C4842.18 1684.71 4789.69 1727.92 4725.24 1759.17C4660.79 1789.93 4588.03 1805.31 4506.98 1805.31ZM5103.52 1787V730.115H5285.89V1141H5289.56C5310.06 1094.13 5340.58 1058 5381.11 1032.61C5422.12 1007.21 5471.44 994.52 5529.06 994.52C5585.21 994.52 5633.79 1007.46 5674.81 1033.34C5715.83 1058.73 5747.56 1094.62 5770.03 1141C5792.49 1186.9 5803.72 1241.1 5803.72 1303.6V1787H5621.34V1339.49C5621.34 1279.92 5606.94 1233.29 5578.13 1199.6C5549.32 1165.42 5508.79 1148.33 5456.55 1148.33C5422.37 1148.33 5392.34 1156.63 5366.46 1173.23C5341.07 1189.34 5321.29 1211.8 5307.13 1240.61C5292.97 1268.93 5285.89 1301.89 5285.89 1339.49V1787H5103.52ZM6195.18 1800.18C6143.91 1800.18 6098.5 1790.42 6058.95 1770.89C6019.89 1750.87 5989.37 1723.28 5967.4 1688.12C5945.91 1652.48 5935.17 1611.71 5935.17 1565.81V1564.34C5935.17 1517.96 5946.65 1478.41 5969.6 1445.69C5993.03 1412.49 6026.72 1386.37 6070.67 1367.32C6114.62 1347.79 6167.84 1336.07 6230.34 1332.17L6526.97 1313.86V1434.71L6255.97 1451.55C6211.05 1454.48 6176.63 1465.22 6152.7 1483.78C6128.78 1502.33 6116.81 1526.99 6116.81 1557.75V1558.48C6116.81 1590.22 6128.78 1615.37 6152.7 1633.92C6177.12 1651.99 6209.34 1661.02 6249.38 1661.02C6284.54 1661.02 6315.79 1653.94 6343.13 1639.78C6370.96 1625.62 6392.94 1606.34 6409.05 1581.92C6425.16 1557.51 6433.22 1529.92 6433.22 1499.16V1266.25C6433.22 1227.19 6420.77 1196.42 6395.87 1173.96C6371.45 1151.01 6336.05 1139.54 6289.66 1139.54C6246.7 1139.54 6212.27 1148.82 6186.39 1167.37C6160.51 1185.44 6144.4 1208.88 6138.05 1237.68L6136.59 1244.28H5968.13L5968.86 1235.49C5972.77 1189.59 5988.15 1148.57 6015.01 1112.44C6041.86 1075.82 6078.97 1047.01 6126.33 1026.01C6174.19 1005.02 6230.83 994.52 6296.26 994.52C6361.2 994.52 6417.35 1005.26 6464.71 1026.75C6512.56 1048.23 6549.43 1078.26 6575.31 1116.83C6601.68 1155.41 6614.86 1200.82 6614.86 1253.06V1787H6433.22V1667.62H6428.82C6414.18 1694.47 6395.13 1717.91 6371.7 1737.93C6348.26 1757.95 6321.4 1773.33 6291.13 1784.07C6261.34 1794.81 6229.36 1800.18 6195.18 1800.18ZM7065.65 1802.38C6985.08 1802.38 6925.03 1784.8 6885.47 1749.65C6846.41 1714.49 6826.88 1656.87 6826.88 1576.79V1151.26H6717.02V1010.63H6826.88V813.611H7012.18V1010.63H7156.47V1151.26H7012.18V1562.15C7012.18 1599.74 7020.48 1625.87 7037.09 1640.52C7054.18 1654.68 7079.08 1661.76 7111.79 1661.76C7121.07 1661.76 7129.13 1661.51 7135.96 1661.02C7143.29 1660.05 7150.12 1659.31 7156.47 1658.83V1795.79C7145.73 1797.25 7132.54 1798.72 7116.92 1800.18C7101.78 1801.65 7084.69 1802.38 7065.65 1802.38ZM7409.51 1437.63V1285.29H7675.38C7743.74 1285.29 7796.47 1267.96 7833.58 1233.29C7871.18 1198.13 7889.98 1148.82 7889.98 1085.34V1083.88C7889.98 1019.91 7871.18 970.594 7833.58 935.926C7796.47 901.258 7743.74 883.924 7675.38 883.924H7409.51V730.115H7722.25C7793.54 730.115 7856.04 744.764 7909.75 774.061C7963.95 803.357 8006.19 844.617 8036.46 897.84C8066.73 950.574 8081.87 1012.34 8081.87 1083.14V1084.61C8081.87 1154.92 8066.73 1216.69 8036.46 1269.91C8006.19 1322.64 7963.95 1363.9 7909.75 1393.69C7856.04 1422.99 7793.54 1437.63 7722.25 1437.63H7409.51ZM7315.03 1787V730.115H7503.99V1787H7315.03ZM8222.12 1787V730.115H8404.49V1787H8222.12ZM8839.17 1802.38C8782.04 1802.38 8733.45 1790.91 8693.41 1767.96C8653.86 1744.52 8623.59 1711.07 8602.59 1667.62C8581.6 1624.16 8571.1 1572.64 8571.1 1513.07V1010.63H8752.74V1476.45C8752.74 1531.63 8765.68 1574.35 8791.56 1604.63C8817.44 1634.41 8856.5 1649.3 8908.75 1649.3C8934.62 1649.3 8958.06 1644.91 8979.06 1636.12C9000.54 1626.84 9018.85 1613.9 9033.99 1597.3C9049.13 1580.7 9060.6 1560.93 9068.41 1537.98C9076.23 1514.54 9080.13 1488.66 9080.13 1460.34V1010.63H9262.51V1787H9080.13V1665.42H9076.47C9062.8 1692.76 9044.98 1716.93 9023 1737.93C9001.03 1758.44 8974.66 1774.3 8943.9 1785.54C8913.14 1796.77 8878.23 1802.38 8839.17 1802.38ZM9730.88 1802.38C9663 1802.38 9604.9 1792.37 9556.56 1772.35C9508.71 1752.33 9471.11 1724.26 9443.77 1688.12C9416.91 1651.5 9400.55 1609.27 9394.69 1561.41L9393.96 1554.82H9573.4L9574.87 1561.41C9581.71 1595.11 9597.82 1621.23 9623.21 1639.78C9649.09 1658.34 9685.22 1667.62 9731.61 1667.62C9761.39 1667.62 9786.78 1663.95 9807.78 1656.63C9828.78 1649.3 9844.89 1638.56 9856.12 1624.4C9867.84 1610.24 9873.7 1593.64 9873.7 1574.6V1573.87C9873.7 1550.92 9865.88 1532.36 9850.26 1518.2C9834.63 1503.55 9806.56 1491.59 9766.03 1482.31L9637.12 1453.75C9587.81 1442.52 9546.55 1427.14 9513.35 1407.61C9480.14 1388.07 9455.24 1363.9 9438.64 1335.1C9422.04 1305.8 9413.74 1271.86 9413.74 1233.29V1232.56C9413.74 1185.19 9426.68 1143.69 9452.55 1108.04C9478.43 1072.4 9514.81 1044.57 9561.69 1024.55C9608.56 1004.53 9663 994.52 9725.02 994.52C9789.47 994.52 9844.64 1005.26 9890.54 1026.75C9936.44 1048.23 9971.84 1077.04 9996.74 1113.17C10022.1 1149.3 10035.8 1189.83 10037.8 1234.75L10038.5 1242.81H9868.57L9867.84 1236.95C9863.93 1205.7 9849.77 1180.07 9825.36 1160.05C9800.94 1139.54 9767.5 1129.29 9725.02 1129.29C9698.16 1129.29 9674.72 1133.19 9654.7 1141C9635.17 1148.82 9620.04 1159.8 9609.29 1173.96C9599.04 1188.12 9593.91 1204.72 9593.91 1223.77V1224.5C9593.91 1239.15 9597.57 1252.33 9604.9 1264.05C9612.22 1275.77 9623.94 1286.02 9640.05 1294.81C9656.17 1303.11 9677.65 1310.44 9704.51 1316.79L9833.41 1345.35C9913.98 1363.42 9971.35 1389.29 10005.5 1422.99C10039.7 1456.19 10056.8 1500.87 10056.8 1557.02V1557.75C10056.8 1606.58 10042.9 1649.55 10015.1 1686.66C9987.22 1723.28 9948.65 1751.84 9899.33 1772.35C9850.5 1792.37 9794.35 1802.38 9730.88 1802.38Z" fill="black"/>
<path d="M1803.96 5.45117C1596.31 16.8503 1369.82 70.377 1169.6 156.119C952.035 248.8 757.762 378.652 587.774 544.684C438.601 690.892 338.987 820.744 238.877 998.671C80.7827 1281.17 -8.91959 1650.41 1.48786 1975.04C10.4085 2246.64 71.862 2503.37 185.353 2742.75C244.328 2867.15 334.031 3010.88 423.237 3122.4C482.708 3196.74 636.342 3352.36 708.699 3410.85C968.885 3621.98 1258.31 3755.8 1583.42 3815.77C1770.75 3850.46 1992.78 3854.92 2185.56 3828.16C2425.43 3794.95 2667.28 3713.17 2872.46 3595.22C2941.34 3556.06 3021.13 3503.03 3085.07 3454.46C3138.59 3414.32 3230.27 3336.5 3247.12 3317.17C3255.55 3307.76 3250.1 3302.31 3073.67 3126.86C2876.42 2930.59 2866.51 2922.66 2797.13 2906.31C2752.52 2895.9 2684.13 2898.87 2647.46 2913.25C2632.59 2918.7 2590.96 2941.5 2554.78 2963.8C2247.02 3150.15 1874.83 3192.28 1538.82 3077.79C1352.47 3014.35 1192.89 2913.74 1055.61 2771.99C987.717 2702.61 955.008 2662.46 905.449 2586.63C803.357 2432 735.956 2247.13 714.15 2061.77C705.725 1989.41 707.708 1826.85 718.115 1756.97C758.754 1483.88 881.165 1246.48 1081.88 1052.69C1265.25 875.262 1483.81 764.243 1737.05 720.133C1809.41 707.743 2026.48 707.743 2106.27 720.133C2265.85 745.905 2415.52 800.423 2553.29 883.687C2633.09 931.762 2663.81 942.666 2722.79 942.17C2787.71 942.17 2827.36 930.275 2879.39 895.582C2904.17 879.227 3246.13 540.719 3246.13 532.789C3246.13 529.816 3224.33 508.504 3198.06 485.21C2866.01 193.291 2466.07 29.2407 2026.98 4.95532C1930.83 -0.496338 1908.03 -0.496094 1803.96 5.45117Z" fill="#2B59FF"/>
<path d="M1972.7 2536.27C1634.85 2536.27 1359.87 2261.3 1359.87 1923.45C1359.87 1585.6 1634.85 1310.63 1972.7 1310.63C2310.56 1310.63 2585.54 1585.6 2585.54 1923.45C2585.54 2261.3 2310.56 2536.27 1972.7 2536.27ZM1972.7 1694.58C1846.53 1694.58 1743.83 1797.28 1743.83 1923.45C1743.83 2049.62 1846.53 2152.31 1972.7 2152.31C2098.87 2152.31 2201.57 2049.62 2201.57 1923.45C2201.57 1797.28 2098.87 1694.58 1972.7 1694.58Z" fill="#2CC981"/>
</svg>
