<svg width="3261" height="3846" viewBox="0 0 3261 3846" fill="none" xmlns="http://www.w3.org/2000/svg">
<path d="M1803.96 5.45117C1596.31 16.8503 1369.82 70.377 1169.6 156.119C952.035 248.8 757.762 378.652 587.774 544.684C438.601 690.892 338.987 820.744 238.877 998.671C80.7827 1281.17 -8.91959 1650.41 1.48786 1975.04C10.4085 2246.64 71.862 2503.37 185.353 2742.75C244.328 2867.15 334.031 3010.88 423.237 3122.4C482.708 3196.74 636.342 3352.36 708.699 3410.85C968.885 3621.98 1258.31 3755.8 1583.42 3815.77C1770.75 3850.46 1992.78 3854.92 2185.56 3828.16C2425.43 3794.95 2667.28 3713.17 2872.46 3595.22C2941.34 3556.06 3021.13 3503.03 3085.07 3454.46C3138.59 3414.32 3230.27 3336.5 3247.12 3317.17C3255.55 3307.76 3250.1 3302.31 3073.67 3126.86C2876.42 2930.59 2866.51 2922.66 2797.13 2906.31C2752.52 2895.9 2684.13 2898.87 2647.46 2913.25C2632.59 2918.7 2590.96 2941.5 2554.78 2963.8C2247.02 3150.15 1874.83 3192.28 1538.82 3077.79C1352.47 3014.35 1192.89 2913.74 1055.61 2771.99C987.717 2702.61 955.008 2662.46 905.449 2586.63C803.357 2432 735.956 2247.13 714.15 2061.77C705.725 1989.41 707.708 1826.85 718.115 1756.97C758.754 1483.88 881.165 1246.48 1081.88 1052.69C1265.25 875.262 1483.81 764.243 1737.05 720.133C1809.41 707.743 2026.48 707.743 2106.27 720.133C2265.85 745.905 2415.52 800.423 2553.29 883.687C2633.09 931.762 2663.81 942.666 2722.79 942.17C2787.71 942.17 2827.36 930.275 2879.39 895.582C2904.17 879.227 3246.13 540.719 3246.13 532.789C3246.13 529.816 3224.33 508.504 3198.06 485.21C2866.01 193.291 2466.07 29.2407 2026.98 4.95532C1930.83 -0.496338 1908.03 -0.496094 1803.96 5.45117Z" fill="#2B59FF"/>
<path d="M1972.7 2536.27C1634.85 2536.27 1359.87 2261.3 1359.87 1923.45C1359.87 1585.6 1634.85 1310.63 1972.7 1310.63C2310.56 1310.63 2585.54 1585.6 2585.54 1923.45C2585.54 2261.3 2310.56 2536.27 1972.7 2536.27ZM1972.7 1694.58C1846.53 1694.58 1743.83 1797.28 1743.83 1923.45C1743.83 2049.62 1846.53 2152.31 1972.7 2152.31C2098.87 2152.31 2201.57 2049.62 2201.57 1923.45C2201.57 1797.28 2098.87 1694.58 1972.7 1694.58Z" fill="#2CC981"/>
</svg>
